<?xml version="1.0" encoding="UTF-8" standalone="no"?>
<!DOCTYPE svg PUBLIC "-//W3C//DTD SVG 1.1//EN" "http://www.w3.org/Graphics/SVG/1.1/DTD/svg11.dtd">
<svg width="100%" height="100%" viewBox="0 0 322 90" version="1.1" xmlns="http://www.w3.org/2000/svg" xmlns:xlink="http://www.w3.org/1999/xlink" xml:space="preserve" xmlns:serif="http://www.serif.com/" style="fill-rule:evenodd;clip-rule:evenodd;stroke-linejoin:round;">
    <g id="path2" transform="matrix(1,0,0,1,-133.727,-410.608)">
        <path d="M134.436,411.317L222.276,411.317L222.276,450.967C221.404,446.498 219.505,442.812 216.577,439.909C211.69,435.105 204.481,432.71 194.97,432.71C181.018,432.84 170.531,437.596 163.525,446.977C159.669,452.089 157.071,458.268 155.735,465.498C154.546,471.937 154.488,477.501 155.55,482.176C156.955,488.403 160.231,492.997 165.362,495.957C168.112,497.571 171.632,498.625 175.931,499.126L134.436,499.126L134.436,411.317ZM222.276,464.034L222.276,499.126L188.455,499.126C196.109,498.253 202.626,495.698 208.007,491.46C215.224,485.751 219.867,477.258 221.944,466.016C222.068,465.345 222.178,464.684 222.276,464.033ZM193.673,439.731C182.867,439.731 175.872,448.352 172.686,465.596C171.834,470.206 171.42,474.023 171.422,477.08C171.426,480.121 171.859,482.855 172.71,485.249C174.411,490.053 178.175,492.447 183.982,492.447C189.287,492.447 193.702,490.264 197.229,485.88C200.754,481.513 203.314,475.01 204.904,466.404C206.515,457.686 206.467,451.118 204.762,446.686C202.981,442.141 199.284,439.828 193.673,439.731Z" style="fill:rgb(10,18,10);stroke:white;stroke-width:1.42px;"/>
    </g>
    <g id="path4" transform="matrix(1,0,0,1,-133.727,-410.608)">
        <path d="M250.608,411.317L338.448,411.317L338.448,434.44L290.922,434.44L289.365,442.867C290.91,442.56 292.347,442.398 293.673,442.398L306.032,442.398L296.136,495.956C295.865,497.25 295.493,498.301 295.033,499.126L250.608,499.126L250.608,411.317ZM338.448,442.809L338.448,499.126L312.228,499.126C312.073,498.301 312.089,497.25 312.296,495.956L322.191,442.398L335.034,442.398C336.108,442.398 337.241,442.539 338.448,442.809Z" style="fill:rgb(255,236,0);stroke:white;stroke-width:1.42px;"/>
    </g>
    <g id="path6" transform="matrix(1,0,0,1,-133.727,-410.608)">
        <path d="M366.779,411.317L454.619,411.317L454.619,488.623L445.578,437.434C445.41,436.334 445.396,435.444 445.551,434.781L431.818,434.781C431.776,435.007 431.744,435.185 431.713,435.347C431.609,435.913 431.309,436.657 430.832,437.579L399.132,496.475C398.596,497.474 397.996,498.351 397.319,499.126L366.779,499.126L366.779,411.317ZM438.726,499.126L405.86,499.126C405.879,498.95 405.899,498.81 405.918,498.707C406.029,498.109 406.328,497.365 406.8,496.475L415.064,481.076L436.335,481.076L438.763,496.475C438.9,497.397 438.918,498.173 438.801,498.804C438.785,498.895 438.76,499 438.726,499.126ZM418.901,473.877L435.206,473.877L431.509,449.76L418.901,473.877Z" style="fill:rgb(227,0,22);stroke:white;stroke-width:1.42px;"/>
    </g>
</svg>
